HIERARCHY
ROOT Hips
{
	OFFSET 228.634003 92.561920 -263.051910
	CHANNELS 6 Xposition Yposition Zposition Zrotation Yrotation Xrotation 
	JOINT LeftUpLeg
	{
		OFFSET 0.103458 1.857820 10.548502
		CHANNELS 3 Zrotation Yrotation Xrotation
		JOINT LeftLeg
		{
			OFFSET 43.500000 -0.000023 -0.000011
			CHANNELS 3 Zrotation Yrotation Xrotation
			JOINT LeftFoot
			{
				OFFSET 42.372192 0.000038 0.000002
				CHANNELS 3 Zrotation Yrotation Xrotation
				JOINT LeftToe
				{
					OFFSET 17.299992 -0.000004 0.000006
					CHANNELS 3 Zrotation Yrotation Xrotation
					End Site
					{
						OFFSET 0.000000 0.000000 0.000000
					}
				}
			}
		}
	}
	JOINT RightUpLeg
	{
		OFFSET 0.103461 1.857814 -10.548508
		CHANNELS 3 Zrotation Yrotation Xrotation
		JOINT RightLeg
		{
			OFFSET 43.500042 -0.000015 0.000008
			CHANNELS 3 Zrotation Yrotation Xrotation
			JOINT RightFoot
			{
				OFFSET 42.372253 0.000008 0.000006
				CHANNELS 3 Zrotation Yrotation Xrotation
				JOINT RightToe
				{
					OFFSET 17.299973 -0.000014 0.000011
					CHANNELS 3 Zrotation Yrotation Xrotation
					End Site
					{
						OFFSET 0.000000 0.000000 0.000000
					}
				}
			}
		}
	}
	JOINT Spine
	{
		OFFSET 6.901966 -2.603737 -0.000007
		CHANNELS 3 Zrotation Yrotation Xrotation
		JOINT Spine1
		{
			OFFSET 12.588102 0.000017 0.000001
			CHANNELS 3 Zrotation Yrotation Xrotation
			JOINT Spine2
			{
				OFFSET 12.343197 -0.000013 0.000000
				CHANNELS 3 Zrotation Yrotation Xrotation
				JOINT Neck
				{
					OFFSET 25.832905 -0.000008 0.000000
					CHANNELS 3 Zrotation Yrotation Xrotation
					JOINT Head
					{
						OFFSET 11.766610 0.000009 -0.000002
						CHANNELS 3 Zrotation Yrotation Xrotation
						End Site
						{
							OFFSET 0.000000 0.000000 0.000000
						}
					}
				}
				JOINT LeftShoulder
				{
					OFFSET 19.745903 -1.480377 6.000115
					CHANNELS 3 Zrotation Yrotation Xrotation
					JOINT LeftArm
					{
						OFFSET 11.284125 -0.000014 -0.000024
						CHANNELS 3 Zrotation Yrotation Xrotation
						JOINT LeftForeArm
						{
							OFFSET 33.000046 -0.000012 0.000029
							CHANNELS 3 Zrotation Yrotation Xrotation
							JOINT LeftHand
							{
								OFFSET 25.199989 0.000034 0.000012
								CHANNELS 3 Zrotation Yrotation Xrotation
								End Site
								{
									OFFSET 0.000000 0.000000 0.000000
								}
							}
						}
					}
				}
				JOINT RightShoulder
				{
					OFFSET 19.746098 -1.480362 -6.000071
					CHANNELS 3 Zrotation Yrotation Xrotation
					JOINT RightArm
					{
						OFFSET 11.284137 -0.000006 -0.000008
						CHANNELS 3 Zrotation Yrotation Xrotation
						JOINT RightForeArm
						{
							OFFSET 33.000095 0.000017 0.000000
							CHANNELS 3 Zrotation Yrotation Xrotation
							JOINT RightHand
							{
								OFFSET 25.199778 0.000144 0.000423
								CHANNELS 3 Zrotation Yrotation Xrotation
								End Site
								{
									OFFSET 0.000000 0.000000 0.000000
								}
							}
						}
					}
				}
			}
		}
	}
}
MOTION
Frames: 15
Frame Time: 0.033333
-27.381531 25.527821 -88.125923 148.742300 -48.315170 68.032550 72.709905 -32.425906 168.365912 -134.862509 5.889655 16.369498 103.177801 -13.947467 -28.330040 21.454550 0.003097 0.000000 -169.213033 11.765791 -178.048606 -41.980842 5.975149 1.836162 66.837048 -0.356999 3.055974 21.454560 -0.003110 -0.000023 13.507470 -4.166069 -4.198254 17.344261 -7.655223 -8.996492 17.027284 -7.709069 -8.950377 30.856370 3.240415 -10.541583 -45.050155 6.511254 -16.650259 110.443182 -80.708083 68.642541 -59.389273 33.673266 -31.607906 -101.942595 -2.918148 3.039596 -37.351911 -17.032492 92.394298 -139.529618 69.648375 43.073294 -19.498413 -44.854337 30.095685 -112.975891 -1.799782 -3.240259 -46.728312 38.622121 -64.128865 
-27.301830 26.202391 -88.469017 149.490998 -48.910629 66.872968 72.537114 -33.064502 166.986650 -134.222301 5.866038 16.237682 103.474805 -13.776852 -28.501305 21.454555 0.003106 -0.000002 -171.097933 12.199589 -176.826385 -43.409974 5.858430 3.029582 67.463308 -1.174304 3.228648 21.454557 -0.003111 -0.000018 13.507207 -4.143362 -4.103292 17.335688 -7.624718 -8.803326 17.018550 -7.677391 -8.757378 33.466636 4.830583 -9.944905 -47.523309 6.043976 -16.249850 103.413285 -81.443906 75.616813 -59.711617 32.004559 -30.559916 -101.883009 -2.909501 3.036356 -37.212312 -18.130264 92.422862 -136.581312 70.181341 46.075479 -18.193624 -43.498698 27.821953 -112.820402 -1.881258 -3.227979 -48.505166 41.456865 -64.377750 
-27.105310 27.045259 -88.951233 149.951694 -49.655803 65.690956 72.178502 -33.994606 165.676415 -133.426694 5.773168 16.420055 103.952098 -13.749278 -28.371972 21.454553 0.003083 0.000001 -173.390212 12.614699 -175.923666 -44.935555 5.693678 3.783120 67.834591 -1.535495 3.765207 21.454560 -0.003114 -0.000022 13.472806 -4.074265 -4.070512 17.257750 -7.495311 -8.724511 16.940657 -7.547537 -8.679337 34.166003 5.364994 -9.578617 -48.413511 5.590371 -15.719279 98.202971 -82.028605 80.774534 -60.181227 30.745636 -30.526168 -102.209300 -2.869977 3.048001 -37.316680 -18.951862 92.494470 -133.757329 71.032499 48.926277 -18.242375 -42.354034 27.194243 -112.320200 -1.838601 -3.209442 -49.323521 43.274333 -64.275079 
-26.818230 28.057409 -89.524727 150.290799 -50.209933 64.598870 71.872291 -34.690900 163.966491 -132.813903 5.675244 15.829030 104.253098 -13.195251 -27.860224 21.454546 0.003085 0.000001 -175.643342 13.327303 -175.000334 -46.627687 5.492590 3.952437 68.118692 -1.320442 4.717457 21.454555 -0.003112 -0.000010 13.494212 -4.036407 -4.117765 17.299508 -7.411245 -8.813788 16.982560 -7.463992 -8.769130 34.188396 5.206914 -9.162056 -49.448743 5.787833 -15.449558 95.995836 -82.308766 82.954806 -60.510859 29.101298 -30.552608 -102.069705 -2.813997 3.037938 -37.808536 -19.756597 92.613014 -134.279525 72.025615 48.338523 -18.590443 -40.648758 27.685111 -111.609806 -1.778682 -3.182979 -49.565433 44.390055 -64.028468 
-26.438940 29.196899 -90.115089 150.463289 -50.571127 63.675579 71.547488 -35.043491 162.116685 -132.342702 5.606471 14.731009 104.011405 -12.422938 -27.310768 21.454553 0.003093 -0.000002 -177.799359 14.179905 -173.828997 -48.536260 4.927616 3.750038 68.489005 -1.123572 4.844960 21.454555 -0.003108 -0.000016 13.589502 -3.989078 -4.145091 17.487019 -7.305320 -8.866017 17.170206 -7.358389 -8.822006 32.845523 4.916199 -9.032362 -49.242327 5.944815 -15.251543 92.359765 -82.536464 86.565619 -61.507424 27.020107 -31.025649 -101.341600 -2.843734 3.007817 -38.179511 -20.589095 92.553059 -134.947818 72.895296 47.609335 -19.604748 -38.978735 29.195360 -110.591793 -1.661809 -3.147031 -49.165652 45.251031 -63.330108 
-25.896700 30.352640 -90.676537 150.316590 -50.601392 63.160897 71.377191 -34.942083 160.581723 -131.891595 5.552067 13.846289 103.459505 -11.874500 -26.712224 21.454550 0.003083 -0.000001 -179.492754 15.202603 -172.419916 -50.505270 4.104336 3.235735 68.848320 -0.930477 4.290642 21.454558 -0.003104 -0.000019 13.724298 -3.956017 -4.139289 17.753200 -7.229560 -8.856681 17.436433 -7.282577 -8.813132 31.767319 4.563319 -9.122121 -49.385478 5.923388 -15.232080 92.537056 -82.148919 86.422814 -62.346226 24.566828 -31.209177 -100.324605 -3.030795 2.975837 -38.032382 -21.136188 92.353440 -135.502115 73.465890 47.013473 -21.153361 -37.227728 31.095550 -109.080204 -1.403363 -3.099156 -48.107877 45.757404 -62.038485 
-25.279659 31.497431 -91.243423 149.534301 -50.310873 62.807230 71.219803 -34.902898 159.823039 -131.520005 5.501229 13.193017 102.887900 -11.487777 -26.061907 21.454553 0.003099 0.000001 179.117189 16.045699 -171.779954 -52.387735 3.414650 2.677772 68.926424 -0.689564 3.759965 21.454550 -0.003107 -0.000019 13.914861 -3.980574 -4.070860 18.133428 -7.273487 -8.735386 17.816518 -7.325778 -8.691551 30.286029 3.988272 -9.200801 -49.341546 5.865184 -15.117990 90.874178 -81.668811 88.123777 -63.223796 21.999491 -31.474939 -98.661905 -3.272293 2.918943 -37.825892 -21.638394 92.077910 -137.791116 74.407732 44.629242 -22.326850 -35.090015 32.814998 -107.069697 -1.075432 -3.033812 -47.090476 46.368542 -60.687337 
-24.521860 32.682419 -91.804947 148.687098 -49.784060 62.424172 71.343901 -34.762203 158.814534 -131.239203 5.489397 12.291098 102.462502 -10.875531 -25.332079 21.454545 0.003086 -0.000000 177.922412 17.127707 -171.439497 -54.250140 3.109110 2.263265 68.975048 -0.519828 3.352374 21.454558 -0.003117 -0.000025 14.104103 -4.054335 -4.024016 18.517290 -7.412014 -8.665779 18.200198 -7.463867 -8.621105 28.525059 2.530971 -9.415272 -49.132409 6.232951 -15.385344 90.326950 -81.172318 88.712321 -64.156117 19.370379 -31.610201 -96.736536 -3.685240 2.862232 -37.047236 -22.013182 91.792353 -141.042505 75.684466 41.253550 -23.335510 -32.888324 34.359427 -104.604211 -0.602011 -2.957867 -46.155126 47.060400 -59.223115 
-23.661200 33.833530 -92.399139 147.487608 -49.151728 62.456841 71.515503 -34.315895 157.776414 -131.052192 5.467877 11.043099 102.206411 -9.972931 -24.574765 21.454545 0.003092 -0.000001 177.026742 18.061214 -170.994401 -56.047870 2.986234 2.178607 69.054640 -0.481839 3.269455 21.454563 -0.003110 -0.000022 14.284021 -4.120443 -4.002999 18.883223 -7.532041 -8.646213 18.566018 -7.583781 -8.600805 26.849103 0.950789 -9.541772 -48.863822 6.682147 -15.653161 90.531740 -80.852002 88.537461 -65.260566 16.571393 -31.103541 -94.248578 -4.396399 2.801306 -36.225588 -22.664408 91.438010 -145.146888 76.779038 37.025841 -24.587689 -30.334509 35.471194 -101.584099 0.128273 -2.874423 -44.983896 47.736168 -57.564097 
-22.702499 34.966648 -93.080994 145.970008 -48.545358 62.679697 71.408590 -33.763493 157.036404 -130.914905 5.411607 9.691052 101.978296 -8.989168 -23.818690 21.454551 0.003087 -0.000003 176.037143 18.754892 -170.697369 -57.981046 2.842832 2.191692 69.002976 -0.469069 3.303770 21.454560 -0.003104 -0.000016 14.431428 -4.151387 -3.917338 19.176658 -7.595882 -8.489969 18.859274 -7.646720 -8.444162 25.275211 -0.334723 -9.741915 -48.529280 6.806747 -15.834177 90.982833 -80.029552 88.160072 -66.272246 13.756260 -29.216472 -91.056209 -6.511196 2.807514 -35.568978 -23.277326 90.885325 -151.008406 77.517005 31.030181 -25.721451 -27.412042 36.498099 -98.144122 1.049582 -2.784934 -43.523854 48.101604 -55.635733 
-21.638321 36.128780 -93.839493 144.347988 -48.126063 62.929340 70.868506 -33.070413 156.500671 -130.774299 5.345009 8.240265 101.654696 -7.954152 -23.060669 21.454557 0.003088 0.000000 174.740664 19.283980 -170.670103 -60.039473 2.770455 2.425652 68.909355 -0.609447 3.360124 21.454562 -0.003106 -0.000024 14.538088 -4.128046 -3.819599 19.382180 -7.557729 -8.297494 19.064639 -7.607396 -8.251896 23.380911 -1.959132 -9.979980 -48.020632 7.072845 -16.169025 89.822028 -79.064740 89.402033 -67.217121 11.225086 -27.697556 -87.890690 -8.630144 2.815829 -34.781342 -23.864013 90.066658 -157.242320 78.202428 24.665712 -27.206995 -24.784349 38.180460 -94.313301 2.093819 -2.686214 -41.973015 47.791701 -53.613082 
-20.386120 37.329170 -94.638580 142.628215 -47.438317 62.880545 70.474998 -32.601097 155.885735 -130.706612 5.348407 6.706468 101.207107 -6.872257 -22.168637 21.454553 0.003092 0.000001 173.407438 20.044915 -171.136346 -62.302301 2.771687 2.534721 68.785373 -0.665465 3.399939 21.454550 -0.003108 -0.000015 14.689746 -4.140643 -3.727619 19.681842 -7.586733 -8.125752 19.364134 -7.635374 -8.079964 20.993211 -4.391720 -10.061368 -47.313793 7.665393 -16.599112 88.210828 -78.829816 91.021771 -68.852910 8.778888 -26.270504 -84.244940 -10.986180 2.820563 -34.178704 -24.699813 88.956753 -165.716194 79.003255 16.032565 -28.915404 -21.929267 38.174610 -90.133014 5.303982 -2.723638 -40.459360 47.034889 -51.826369 
-18.948610 38.546089 -95.556412 140.602217 -46.631177 62.843676 69.875198 -32.091412 155.455625 -130.690602 5.378636 4.996150 100.578606 -5.690446 -21.200415 21.454550 0.003091 -0.000003 171.982319 20.768804 -171.834405 -64.795095 2.729891 2.549919 68.674724 -0.678278 3.363585 21.454562 -0.003107 -0.000020 14.839178 -4.109951 -3.608427 19.971190 -7.535295 -7.891758 19.653343 -7.582552 -7.846257 18.382361 -7.537239 -10.007769 -46.060781 8.654217 -17.211250 87.569261 -78.426363 91.693200 -70.354534 6.265426 -24.944081 -80.048308 -13.241014 2.795583 -33.587520 -25.864328 87.411484 -174.352928 80.008160 7.255780 -30.956975 -18.869009 36.782198 -85.156278 9.661595 -2.807573 -38.302922 46.389781 -49.783248 
-17.327160 39.718491 -96.581734 138.274420 -45.542059 62.674041 69.299209 -31.727308 155.074295 -130.805103 5.459743 2.959748 99.925852 -4.267287 -20.147923 21.454551 0.003099 -0.000004 170.560697 21.449096 -172.980319 -67.517035 2.660785 2.477951 68.661938 -0.615333 3.362147 21.454568 -0.003113 -0.000025 14.974300 -4.092851 -3.438443 20.230308 -7.521461 -7.558328 19.912206 -7.566701 -7.512885 15.445578 -10.104551 -9.754928 -44.197037 9.118875 -17.292798 86.792252 -77.266604 92.564643 -71.054171 4.122817 -23.975612 -75.561925 -15.506990 2.761437 -33.091792 -27.043362 85.423687 178.441766 80.925434 -0.042711 -33.831583 -15.178581 34.039187 -78.712063 14.550490 -2.868100 -33.720238 46.093224 -45.949111 
-15.457450 40.764240 -97.690224 135.513221 -44.179439 62.283498 68.643995 -31.506399 154.984915 -131.146394 5.625028 0.649132 99.430752 -2.635788 -19.234026 21.454550 0.003086 -0.000003 169.178431 22.026704 -174.673864 -70.404996 2.579627 2.229207 68.777232 -0.396989 3.448724 21.454560 -0.003114 -0.000022 15.017810 -4.122349 -3.341928 20.314639 -7.593943 -7.374457 19.996321 -7.638092 -7.328554 12.435820 -12.322150 -8.914222 -41.944229 9.431414 -16.685010 85.376354 -76.018960 94.073739 -70.814261 2.738444 -23.452684 -70.521806 -17.778764 2.708117 -32.986996 -28.283550 82.787500 166.095229 81.955822 -12.515677 -37.514773 -10.840902 29.508528 -69.728165 19.540589 -2.834988 -27.683279 46.233062 -40.137245 
